{
	"asset":{
		"generator":"Khronos glTF Blender I/O v4.3.47",
		"version":"2.0"
	},
	"scene":0,
	"scenes":[
		{
			"name":"Scene",
			"nodes":[
				0,
				1,
				2
			]
		}
	],
	"nodes":[
		{
			"mesh":0,
			"name":"Plane",
			"scale":[
				24.818862915039062,
				1,
				24.64359474182129
			],
			"translation":[
				9.149825096130371,
				-1.2131223678588867,
				-11.387093544006348
			]
		},
		{
			"mesh":1,
			"name":"Cube.001",
			"scale":[
				1.0682586431503296,
				1.0682586431503296,
				1.0682586431503296
			],
			"translation":[
				0,
				-0.36723825335502625,
				0
			]
		},
		{
			"mesh":2,
			"name":"Cube",
			"scale":[
				1.0682586431503296,
				1.0682586431503296,
				1.0682586431503296
			],
			"translation":[
				0,
				-0.36723825335502625,
				0
			]
		}
	],
	"materials":[
		{
			"doubleSided":true,
			"name":"Material",
			"pbrMetallicRoughness":{
				"baseColorFactor":[
					0.8000000715255737,
					0.7702552676200867,
					0.7470895051956177,
					1
				],
				"metallicFactor":0,
				"roughnessFactor":0.5
			}
		},
		{
			"doubleSided":true,
			"name":"window1",
			"pbrMetallicRoughness":{
				"baseColorFactor":[
					0.800000011920929,
					0.800000011920929,
					0.800000011920929,
					1
				],
				"metallicFactor":0,
				"roughnessFactor":0.5
			}
		},
		{
			"doubleSided":true,
			"name":"window2",
			"pbrMetallicRoughness":{
				"baseColorFactor":[
					0.800000011920929,
					0.800000011920929,
					0.800000011920929,
					1
				],
				"metallicFactor":0,
				"roughnessFactor":0.5
			}
		},
		{
			"doubleSided":true,
			"name":"window3",
			"pbrMetallicRoughness":{
				"baseColorFactor":[
					0.800000011920929,
					0.800000011920929,
					0.800000011920929,
					1
				],
				"metallicFactor":0,
				"roughnessFactor":0.5
			}
		},
		{
			"doubleSided":true,
			"name":"brack",
			"pbrMetallicRoughness":{
				"baseColorFactor":[
					0.800000011920929,
					0.800000011920929,
					0.800000011920929,
					1
				],
				"metallicFactor":0,
				"roughnessFactor":0.5
			}
		},
		{
			"doubleSided":true,
			"name":"wf",
			"pbrMetallicRoughness":{
				"baseColorFactor":[
					0.800000011920929,
					0.800000011920929,
					0.800000011920929,
					1
				],
				"metallicFactor":0,
				"roughnessFactor":0.5
			}
		},
		{
			"doubleSided":true,
			"name":"store",
			"pbrMetallicRoughness":{
				"baseColorFactor":[
					0.800000011920929,
					0.800000011920929,
					0.800000011920929,
					1
				],
				"metallicFactor":0,
				"roughnessFactor":0.5
			}
		},
		{
			"doubleSided":true,
			"name":"top",
			"pbrMetallicRoughness":{
				"baseColorFactor":[
					0.800000011920929,
					0.800000011920929,
					0.800000011920929,
					1
				],
				"metallicFactor":0,
				"roughnessFactor":0.5
			}
		},
		{
			"doubleSided":true,
			"name":"w2",
			"pbrMetallicRoughness":{
				"baseColorFactor":[
					0.800000011920929,
					0.800000011920929,
					0.800000011920929,
					1
				],
				"metallicFactor":0,
				"roughnessFactor":0.5
			}
		},
		{
			"doubleSided":true,
			"name":"door",
			"pbrMetallicRoughness":{
				"baseColorFactor":[
					0.800000011920929,
					0.800000011920929,
					0.800000011920929,
					1
				],
				"metallicFactor":0,
				"roughnessFactor":0.5
			}
		},
		{
			"doubleSided":true,
			"name":"door2",
			"pbrMetallicRoughness":{
				"baseColorFactor":[
					0.800000011920929,
					0.800000011920929,
					0.800000011920929,
					1
				],
				"metallicFactor":0,
				"roughnessFactor":0.5
			}
		},
		{
			"doubleSided":true,
			"name":"AC",
			"pbrMetallicRoughness":{
				"baseColorFactor":[
					0.800000011920929,
					0.800000011920929,
					0.800000011920929,
					1
				],
				"metallicFactor":0,
				"roughnessFactor":0.5
			}
		},
		{
			"doubleSided":true,
			"name":"iron",
			"pbrMetallicRoughness":{
				"baseColorFactor":[
					0.800000011920929,
					0.800000011920929,
					0.800000011920929,
					1
				],
				"metallicFactor":0,
				"roughnessFactor":0.5
			}
		}
	],
	"meshes":[
		{
			"name":"Plane",
			"primitives":[
				{
					"attributes":{
						"POSITION":0,
						"NORMAL":1
					},
					"indices":2,
					"material":0
				}
			]
		},
		{
			"name":"Cube.001",
			"primitives":[
				{
					"attributes":{
						"POSITION":3,
						"NORMAL":4,
						"TEXCOORD_0":5
					},
					"indices":6,
					"material":1
				},
				{
					"attributes":{
						"POSITION":7,
						"NORMAL":8,
						"TEXCOORD_0":9
					},
					"indices":10,
					"material":2
				},
				{
					"attributes":{
						"POSITION":11,
						"NORMAL":12,
						"TEXCOORD_0":13
					},
					"indices":14,
					"material":3
				}
			]
		},
		{
			"name":"Cube",
			"primitives":[
				{
					"attributes":{
						"POSITION":15,
						"NORMAL":16,
						"TEXCOORD_0":17,
						"TEXCOORD_1":18
					},
					"indices":19,
					"material":4
				},
				{
					"attributes":{
						"POSITION":20,
						"NORMAL":21,
						"TEXCOORD_0":22,
						"TEXCOORD_1":23
					},
					"indices":24,
					"material":5
				},
				{
					"attributes":{
						"POSITION":25,
						"NORMAL":26,
						"TEXCOORD_0":27,
						"TEXCOORD_1":28
					},
					"indices":29,
					"material":6
				},
				{
					"attributes":{
						"POSITION":30,
						"NORMAL":31,
						"TEXCOORD_0":32,
						"TEXCOORD_1":33
					},
					"indices":34,
					"material":7
				},
				{
					"attributes":{
						"POSITION":35,
						"NORMAL":36,
						"TEXCOORD_0":37,
						"TEXCOORD_1":38
					},
					"indices":39,
					"material":8
				},
				{
					"attributes":{
						"POSITION":40,
						"NORMAL":41,
						"TEXCOORD_0":42,
						"TEXCOORD_1":43
					},
					"indices":44,
					"material":9
				},
				{
					"attributes":{
						"POSITION":45,
						"NORMAL":46,
						"TEXCOORD_0":47,
						"TEXCOORD_1":48
					},
					"indices":49,
					"material":10
				},
				{
					"attributes":{
						"POSITION":50,
						"NORMAL":51,
						"TEXCOORD_0":52,
						"TEXCOORD_1":53
					},
					"indices":54,
					"material":11
				},
				{
					"attributes":{
						"POSITION":55,
						"NORMAL":56,
						"TEXCOORD_0":57,
						"TEXCOORD_1":58
					},
					"indices":59,
					"material":12
				}
			]
		}
	],
	"accessors":[
		{
			"bufferView":0,
			"componentType":5126,
			"count":4,
			"max":[
				1,
				0,
				1
			],
			"min":[
				-1,
				0,
				-1
			],
			"type":"VEC3"
		},
		{
			"bufferView":1,
			"componentType":5126,
			"count":4,
			"type":"VEC3"
		},
		{
			"bufferView":2,
			"componentType":5123,
			"count":6,
			"type":"SCALAR"
		},
		{
			"bufferView":3,
			"componentType":5126,
			"count":24,
			"max":[
				-3.1400225162506104,
				0.3328625559806824,
				1.9769036769866943
			],
			"min":[
				-3.9903953075408936,
				-0.3360869884490967,
				-0.9821435809135437
			],
			"type":"VEC3"
		},
		{
			"bufferView":4,
			"componentType":5126,
			"count":24,
			"type":"VEC3"
		},
		{
			"bufferView":5,
			"componentType":5126,
			"count":24,
			"type":"VEC2"
		},
		{
			"bufferView":6,
			"componentType":5123,
			"count":48,
			"type":"SCALAR"
		},
		{
			"bufferView":7,
			"componentType":5126,
			"count":68,
			"max":[
				1.9472647905349731,
				3.1471450328826904,
				1.9340418577194214
			],
			"min":[
				-3.7017576694488525,
				-0.34647902846336365,
				-0.9307721257209778
			],
			"type":"VEC3"
		},
		{
			"bufferView":8,
			"componentType":5126,
			"count":68,
			"type":"VEC3"
		},
		{
			"bufferView":9,
			"componentType":5126,
			"count":68,
			"type":"VEC2"
		},
		{
			"bufferView":10,
			"componentType":5123,
			"count":102,
			"type":"SCALAR"
		},
		{
			"bufferView":11,
			"componentType":5126,
			"count":48,
			"max":[
				-3.95654559135437,
				3.192289113998413,
				1.664557695388794
			],
			"min":[
				-3.9565460681915283,
				1.363377571105957,
				-0.6697974801063538
			],
			"type":"VEC3"
		},
		{
			"bufferView":12,
			"componentType":5126,
			"count":48,
			"type":"VEC3"
		},
		{
			"bufferView":13,
			"componentType":5126,
			"count":48,
			"type":"VEC2"
		},
		{
			"bufferView":14,
			"componentType":5123,
			"count":108,
			"type":"SCALAR"
		},
		{
			"bufferView":15,
			"componentType":5126,
			"count":488,
			"max":[
				2.025959014892578,
				4.1639790534973145,
				1.9977467060089111
			],
			"min":[
				-4.0082526206970215,
				-0.49068933725357056,
				-1.000000238418579
			],
			"type":"VEC3"
		},
		{
			"bufferView":16,
			"componentType":5126,
			"count":488,
			"type":"VEC3"
		},
		{
			"bufferView":17,
			"componentType":5126,
			"count":488,
			"type":"VEC2"
		},
		{
			"bufferView":18,
			"componentType":5126,
			"count":488,
			"type":"VEC2"
		},
		{
			"bufferView":19,
			"componentType":5123,
			"count":1122,
			"type":"SCALAR"
		},
		{
			"bufferView":20,
			"componentType":5126,
			"count":3342,
			"max":[
				2.9514307975769043,
				4.231314182281494,
				2.1993892192840576
			],
			"min":[
				-4.079867839813232,
				-0.8418694734573364,
				-1.1904408931732178
			],
			"type":"VEC3"
		},
		{
			"bufferView":21,
			"componentType":5126,
			"count":3342,
			"type":"VEC3"
		},
		{
			"bufferView":22,
			"componentType":5126,
			"count":3342,
			"type":"VEC2"
		},
		{
			"bufferView":23,
			"componentType":5126,
			"count":3342,
			"type":"VEC2"
		},
		{
			"bufferView":24,
			"componentType":5123,
			"count":6606,
			"type":"SCALAR"
		},
		{
			"bufferView":25,
			"componentType":5126,
			"count":320,
			"max":[
				-2.638488292694092,
				0.9637361764907837,
				2.1993892192840576
			],
			"min":[
				-4.210983753204346,
				-0.8418694734573364,
				-1.1904408931732178
			],
			"type":"VEC3"
		},
		{
			"bufferView":26,
			"componentType":5126,
			"count":320,
			"type":"VEC3"
		},
		{
			"bufferView":27,
			"componentType":5126,
			"count":320,
			"type":"VEC2"
		},
		{
			"bufferView":28,
			"componentType":5126,
			"count":320,
			"type":"VEC2"
		},
		{
			"bufferView":29,
			"componentType":5123,
			"count":648,
			"type":"SCALAR"
		},
		{
			"bufferView":30,
			"componentType":5126,
			"count":24,
			"max":[
				1.915359616279602,
				3.8022661209106445,
				1.8637648820877075
			],
			"min":[
				-3.9060280323028564,
				3.8022661209106445,
				-0.869536280632019
			],
			"type":"VEC3"
		},
		{
			"bufferView":31,
			"componentType":5126,
			"count":24,
			"type":"VEC3"
		},
		{
			"bufferView":32,
			"componentType":5126,
			"count":24,
			"type":"VEC2"
		},
		{
			"bufferView":33,
			"componentType":5126,
			"count":24,
			"type":"VEC2"
		},
		{
			"bufferView":34,
			"componentType":5123,
			"count":66,
			"type":"SCALAR"
		},
		{
			"bufferView":35,
			"componentType":5126,
			"count":282,
			"max":[
				2.098255157470703,
				3.9807558059692383,
				2.0466604232788086
			],
			"min":[
				-4.088923454284668,
				3.628359079360962,
				-1.0524317026138306
			],
			"type":"VEC3"
		},
		{
			"bufferView":36,
			"componentType":5126,
			"count":282,
			"type":"VEC3"
		},
		{
			"bufferView":37,
			"componentType":5126,
			"count":282,
			"type":"VEC2"
		},
		{
			"bufferView":38,
			"componentType":5126,
			"count":282,
			"type":"VEC2"
		},
		{
			"bufferView":39,
			"componentType":5123,
			"count":576,
			"type":"SCALAR"
		},
		{
			"bufferView":40,
			"componentType":5126,
			"count":6,
			"max":[
				-3.957857608795166,
				0.1802240014076233,
				0.7556432485580444
			],
			"min":[
				-3.957857608795166,
				-0.837715744972229,
				0.2658116817474365
			],
			"type":"VEC3"
		},
		{
			"bufferView":41,
			"componentType":5126,
			"count":6,
			"type":"VEC3"
		},
		{
			"bufferView":42,
			"componentType":5126,
			"count":6,
			"type":"VEC2"
		},
		{
			"bufferView":43,
			"componentType":5126,
			"count":6,
			"type":"VEC2"
		},
		{
			"bufferView":44,
			"componentType":5123,
			"count":12,
			"type":"SCALAR"
		},
		{
			"bufferView":45,
			"componentType":5126,
			"count":11,
			"max":[
				1.9741065502166748,
				0.7005354762077332,
				1.3485040664672852
			],
			"min":[
				1.9565017223358154,
				-0.3978794813156128,
				0.6990419626235962
			],
			"type":"VEC3"
		},
		{
			"bufferView":46,
			"componentType":5126,
			"count":11,
			"type":"VEC3"
		},
		{
			"bufferView":47,
			"componentType":5126,
			"count":11,
			"type":"VEC2"
		},
		{
			"bufferView":48,
			"componentType":5126,
			"count":11,
			"type":"VEC2"
		},
		{
			"bufferView":49,
			"componentType":5123,
			"count":27,
			"type":"SCALAR"
		},
		{
			"bufferView":50,
			"componentType":5126,
			"count":24,
			"max":[
				0.4930163621902466,
				4.122933387756348,
				0.48666614294052124
			],
			"min":[
				-0.01737678050994873,
				3.791837453842163,
				0.11494369059801102
			],
			"type":"VEC3"
		},
		{
			"bufferView":51,
			"componentType":5126,
			"count":24,
			"type":"VEC3"
		},
		{
			"bufferView":52,
			"componentType":5126,
			"count":24,
			"type":"VEC2"
		},
		{
			"bufferView":53,
			"componentType":5126,
			"count":24,
			"type":"VEC2"
		},
		{
			"bufferView":54,
			"componentType":5123,
			"count":36,
			"type":"SCALAR"
		},
		{
			"bufferView":55,
			"componentType":5126,
			"count":56,
			"max":[
				0.8003777265548706,
				2.726569175720215,
				-0.9840736389160156
			],
			"min":[
				0.5198947191238403,
				-0.05706155300140381,
				-1.1471128463745117
			],
			"type":"VEC3"
		},
		{
			"bufferView":56,
			"componentType":5126,
			"count":56,
			"type":"VEC3"
		},
		{
			"bufferView":57,
			"componentType":5126,
			"count":56,
			"type":"VEC2"
		},
		{
			"bufferView":58,
			"componentType":5126,
			"count":56,
			"type":"VEC2"
		},
		{
			"bufferView":59,
			"componentType":5123,
			"count":96,
			"type":"SCALAR"
		}
	],
	"bufferViews":[
		{
			"buffer":0,
			"byteLength":48,
			"byteOffset":0,
			"target":34962
		},
		{
			"buffer":0,
			"byteLength":48,
			"byteOffset":48,
			"target":34962
		},
		{
			"buffer":0,
			"byteLength":12,
			"byteOffset":96,
			"target":34963
		},
		{
			"buffer":0,
			"byteLength":288,
			"byteOffset":108,
			"target":34962
		},
		{
			"buffer":0,
			"byteLength":288,
			"byteOffset":396,
			"target":34962
		},
		{
			"buffer":0,
			"byteLength":192,
			"byteOffset":684,
			"target":34962
		},
		{
			"buffer":0,
			"byteLength":96,
			"byteOffset":876,
			"target":34963
		},
		{
			"buffer":0,
			"byteLength":816,
			"byteOffset":972,
			"target":34962
		},
		{
			"buffer":0,
			"byteLength":816,
			"byteOffset":1788,
			"target":34962
		},
		{
			"buffer":0,
			"byteLength":544,
			"byteOffset":2604,
			"target":34962
		},
		{
			"buffer":0,
			"byteLength":204,
			"byteOffset":3148,
			"target":34963
		},
		{
			"buffer":0,
			"byteLength":576,
			"byteOffset":3352,
			"target":34962
		},
		{
			"buffer":0,
			"byteLength":576,
			"byteOffset":3928,
			"target":34962
		},
		{
			"buffer":0,
			"byteLength":384,
			"byteOffset":4504,
			"target":34962
		},
		{
			"buffer":0,
			"byteLength":216,
			"byteOffset":4888,
			"target":34963
		},
		{
			"buffer":0,
			"byteLength":5856,
			"byteOffset":5104,
			"target":34962
		},
		{
			"buffer":0,
			"byteLength":5856,
			"byteOffset":10960,
			"target":34962
		},
		{
			"buffer":0,
			"byteLength":3904,
			"byteOffset":16816,
			"target":34962
		},
		{
			"buffer":0,
			"byteLength":3904,
			"byteOffset":20720,
			"target":34962
		},
		{
			"buffer":0,
			"byteLength":2244,
			"byteOffset":24624,
			"target":34963
		},
		{
			"buffer":0,
			"byteLength":40104,
			"byteOffset":26868,
			"target":34962
		},
		{
			"buffer":0,
			"byteLength":40104,
			"byteOffset":66972,
			"target":34962
		},
		{
			"buffer":0,
			"byteLength":26736,
			"byteOffset":107076,
			"target":34962
		},
		{
			"buffer":0,
			"byteLength":26736,
			"byteOffset":133812,
			"target":34962
		},
		{
			"buffer":0,
			"byteLength":13212,
			"byteOffset":160548,
			"target":34963
		},
		{
			"buffer":0,
			"byteLength":3840,
			"byteOffset":173760,
			"target":34962
		},
		{
			"buffer":0,
			"byteLength":3840,
			"byteOffset":177600,
			"target":34962
		},
		{
			"buffer":0,
			"byteLength":2560,
			"byteOffset":181440,
			"target":34962
		},
		{
			"buffer":0,
			"byteLength":2560,
			"byteOffset":184000,
			"target":34962
		},
		{
			"buffer":0,
			"byteLength":1296,
			"byteOffset":186560,
			"target":34963
		},
		{
			"buffer":0,
			"byteLength":288,
			"byteOffset":187856,
			"target":34962
		},
		{
			"buffer":0,
			"byteLength":288,
			"byteOffset":188144,
			"target":34962
		},
		{
			"buffer":0,
			"byteLength":192,
			"byteOffset":188432,
			"target":34962
		},
		{
			"buffer":0,
			"byteLength":192,
			"byteOffset":188624,
			"target":34962
		},
		{
			"buffer":0,
			"byteLength":132,
			"byteOffset":188816,
			"target":34963
		},
		{
			"buffer":0,
			"byteLength":3384,
			"byteOffset":188948,
			"target":34962
		},
		{
			"buffer":0,
			"byteLength":3384,
			"byteOffset":192332,
			"target":34962
		},
		{
			"buffer":0,
			"byteLength":2256,
			"byteOffset":195716,
			"target":34962
		},
		{
			"buffer":0,
			"byteLength":2256,
			"byteOffset":197972,
			"target":34962
		},
		{
			"buffer":0,
			"byteLength":1152,
			"byteOffset":200228,
			"target":34963
		},
		{
			"buffer":0,
			"byteLength":72,
			"byteOffset":201380,
			"target":34962
		},
		{
			"buffer":0,
			"byteLength":72,
			"byteOffset":201452,
			"target":34962
		},
		{
			"buffer":0,
			"byteLength":48,
			"byteOffset":201524,
			"target":34962
		},
		{
			"buffer":0,
			"byteLength":48,
			"byteOffset":201572,
			"target":34962
		},
		{
			"buffer":0,
			"byteLength":24,
			"byteOffset":201620,
			"target":34963
		},
		{
			"buffer":0,
			"byteLength":132,
			"byteOffset":201644,
			"target":34962
		},
		{
			"buffer":0,
			"byteLength":132,
			"byteOffset":201776,
			"target":34962
		},
		{
			"buffer":0,
			"byteLength":88,
			"byteOffset":201908,
			"target":34962
		},
		{
			"buffer":0,
			"byteLength":88,
			"byteOffset":201996,
			"target":34962
		},
		{
			"buffer":0,
			"byteLength":54,
			"byteOffset":202084,
			"target":34963
		},
		{
			"buffer":0,
			"byteLength":288,
			"byteOffset":202140,
			"target":34962
		},
		{
			"buffer":0,
			"byteLength":288,
			"byteOffset":202428,
			"target":34962
		},
		{
			"buffer":0,
			"byteLength":192,
			"byteOffset":202716,
			"target":34962
		},
		{
			"buffer":0,
			"byteLength":192,
			"byteOffset":202908,
			"target":34962
		},
		{
			"buffer":0,
			"byteLength":72,
			"byteOffset":203100,
			"target":34963
		},
		{
			"buffer":0,
			"byteLength":672,
			"byteOffset":203172,
			"target":34962
		},
		{
			"buffer":0,
			"byteLength":672,
			"byteOffset":203844,
			"target":34962
		},
		{
			"buffer":0,
			"byteLength":448,
			"byteOffset":204516,
			"target":34962
		},
		{
			"buffer":0,
			"byteLength":448,
			"byteOffset":204964,
			"target":34962
		},
		{
			"buffer":0,
			"byteLength":192,
			"byteOffset":205412,
			"target":34963
		}
	],
	"buffers":[
		{
			"byteLength":205604,
			"uri":"building.bin"
		}
	]
}
